<mxfile host="app.diagrams.net" modified="2023-09-09T00:11:17.197Z" agent="Mozilla/5.0 (Windows NT 10.0; Win64; x64) AppleWebKit/537.36 (KHTML, like Gecko) Chrome/116.0.0.0 Safari/537.36 Edg/116.0.1938.69" etag="4yWsi2a2L-gR44AHppRy" version="21.7.2" type="github">
  <diagram name="第 1 页" id="3W-qNyAslOVX8rs-bLyV">
    <mxGraphModel dx="2198" dy="1298" grid="1" gridSize="10" guides="1" tooltips="1" connect="1" arrows="1" fold="1" page="1" pageScale="1" pageWidth="850" pageHeight="1100" math="0" shadow="0">
      <root>
        <mxCell id="0" />
        <mxCell id="1" parent="0" />
        <mxCell id="8a4RQPelO_6E-vQj97Ch-1" value="" style="rounded=0;whiteSpace=wrap;html=1;" vertex="1" parent="1">
          <mxGeometry x="10" y="410" width="430" height="170" as="geometry" />
        </mxCell>
        <mxCell id="8a4RQPelO_6E-vQj97Ch-4" value="" style="edgeStyle=orthogonalEdgeStyle;rounded=0;orthogonalLoop=1;jettySize=auto;html=1;" edge="1" parent="1" source="8a4RQPelO_6E-vQj97Ch-2" target="8a4RQPelO_6E-vQj97Ch-3">
          <mxGeometry relative="1" as="geometry" />
        </mxCell>
        <mxCell id="8a4RQPelO_6E-vQj97Ch-2" value="数据收集" style="shape=cylinder3;whiteSpace=wrap;html=1;boundedLbl=1;backgroundOutline=1;size=15;" vertex="1" parent="1">
          <mxGeometry x="60" y="450" width="60" height="80" as="geometry" />
        </mxCell>
        <mxCell id="8a4RQPelO_6E-vQj97Ch-6" value="" style="edgeStyle=orthogonalEdgeStyle;rounded=0;orthogonalLoop=1;jettySize=auto;html=1;" edge="1" parent="1" source="8a4RQPelO_6E-vQj97Ch-3" target="8a4RQPelO_6E-vQj97Ch-5">
          <mxGeometry relative="1" as="geometry" />
        </mxCell>
        <mxCell id="8a4RQPelO_6E-vQj97Ch-3" value="数据理解" style="shape=cylinder3;whiteSpace=wrap;html=1;boundedLbl=1;backgroundOutline=1;size=15;" vertex="1" parent="1">
          <mxGeometry x="200" y="450" width="60" height="80" as="geometry" />
        </mxCell>
        <mxCell id="8a4RQPelO_6E-vQj97Ch-5" value="数据预处理" style="shape=cylinder3;whiteSpace=wrap;html=1;boundedLbl=1;backgroundOutline=1;size=15;" vertex="1" parent="1">
          <mxGeometry x="340" y="450" width="60" height="80" as="geometry" />
        </mxCell>
        <mxCell id="8a4RQPelO_6E-vQj97Ch-7" value="" style="rounded=0;whiteSpace=wrap;html=1;" vertex="1" parent="1">
          <mxGeometry x="10" y="200" width="940" height="160" as="geometry" />
        </mxCell>
        <mxCell id="8a4RQPelO_6E-vQj97Ch-8" value="标签引擎" style="text;html=1;align=center;verticalAlign=middle;resizable=0;points=[];autosize=1;strokeColor=none;fillColor=none;fontStyle=1" vertex="1" parent="1">
          <mxGeometry x="10" y="200" width="70" height="30" as="geometry" />
        </mxCell>
        <mxCell id="8a4RQPelO_6E-vQj97Ch-11" value="数据准备" style="text;html=1;align=center;verticalAlign=middle;resizable=0;points=[];autosize=1;strokeColor=none;fillColor=none;fontStyle=1" vertex="1" parent="1">
          <mxGeometry x="10" y="420" width="70" height="30" as="geometry" />
        </mxCell>
        <mxCell id="8a4RQPelO_6E-vQj97Ch-12" value="" style="shape=flexArrow;endArrow=classic;html=1;rounded=0;" edge="1" parent="1">
          <mxGeometry width="50" height="50" relative="1" as="geometry">
            <mxPoint x="110" y="410" as="sourcePoint" />
            <mxPoint x="110" y="370" as="targetPoint" />
          </mxGeometry>
        </mxCell>
        <mxCell id="8a4RQPelO_6E-vQj97Ch-13" value="" style="shape=flexArrow;endArrow=classic;html=1;rounded=0;" edge="1" parent="1">
          <mxGeometry width="50" height="50" relative="1" as="geometry">
            <mxPoint x="210" y="410" as="sourcePoint" />
            <mxPoint x="210" y="370" as="targetPoint" />
          </mxGeometry>
        </mxCell>
        <mxCell id="8a4RQPelO_6E-vQj97Ch-14" value="" style="shape=flexArrow;endArrow=classic;html=1;rounded=0;" edge="1" parent="1">
          <mxGeometry width="50" height="50" relative="1" as="geometry">
            <mxPoint x="310" y="410" as="sourcePoint" />
            <mxPoint x="310" y="370" as="targetPoint" />
          </mxGeometry>
        </mxCell>
        <mxCell id="8a4RQPelO_6E-vQj97Ch-33" value="" style="rounded=0;whiteSpace=wrap;html=1;" vertex="1" parent="1">
          <mxGeometry x="460" y="410" width="490" height="170" as="geometry" />
        </mxCell>
        <mxCell id="8a4RQPelO_6E-vQj97Ch-34" value="节点定义" style="text;html=1;align=center;verticalAlign=middle;resizable=0;points=[];autosize=1;strokeColor=none;fillColor=none;fontStyle=1" vertex="1" parent="1">
          <mxGeometry x="460" y="410" width="70" height="30" as="geometry" />
        </mxCell>
        <mxCell id="8a4RQPelO_6E-vQj97Ch-35" value="" style="rounded=1;whiteSpace=wrap;html=1;arcSize=7;" vertex="1" parent="1">
          <mxGeometry x="470" y="440" width="260" height="130" as="geometry" />
        </mxCell>
        <mxCell id="8a4RQPelO_6E-vQj97Ch-36" value="" style="rounded=1;whiteSpace=wrap;html=1;fillColor=none;arcSize=5;" vertex="1" parent="1">
          <mxGeometry x="790" y="440" width="150" height="130" as="geometry" />
        </mxCell>
        <mxCell id="8a4RQPelO_6E-vQj97Ch-37" value="导入点" style="rounded=0;whiteSpace=wrap;html=1;" vertex="1" parent="1">
          <mxGeometry x="485" y="460" width="120" height="30" as="geometry" />
        </mxCell>
        <mxCell id="8a4RQPelO_6E-vQj97Ch-38" value="销售交叉" style="rounded=0;whiteSpace=wrap;html=1;" vertex="1" parent="1">
          <mxGeometry x="485" y="500" width="120" height="30" as="geometry" />
        </mxCell>
        <mxCell id="8a4RQPelO_6E-vQj97Ch-39" value="库存饱满点" style="rounded=0;whiteSpace=wrap;html=1;" vertex="1" parent="1">
          <mxGeometry x="610" y="460" width="115" height="30" as="geometry" />
        </mxCell>
        <mxCell id="8a4RQPelO_6E-vQj97Ch-40" value="销售高峰点" style="rounded=0;whiteSpace=wrap;html=1;" vertex="1" parent="1">
          <mxGeometry x="610" y="500" width="110" height="30" as="geometry" />
        </mxCell>
        <mxCell id="8a4RQPelO_6E-vQj97Ch-41" value="停采点" style="rounded=0;whiteSpace=wrap;html=1;" vertex="1" parent="1">
          <mxGeometry x="610" y="535" width="110" height="30" as="geometry" />
        </mxCell>
        <mxCell id="8a4RQPelO_6E-vQj97Ch-42" value="波段节点" style="text;html=1;align=center;verticalAlign=middle;resizable=0;points=[];autosize=1;strokeColor=none;fillColor=none;" vertex="1" parent="1">
          <mxGeometry x="560" y="440" width="70" height="30" as="geometry" />
        </mxCell>
        <mxCell id="8a4RQPelO_6E-vQj97Ch-43" value="销售节点" style="text;html=1;align=center;verticalAlign=middle;resizable=0;points=[];autosize=1;strokeColor=none;fillColor=none;" vertex="1" parent="1">
          <mxGeometry x="830" y="440" width="70" height="30" as="geometry" />
        </mxCell>
        <mxCell id="8a4RQPelO_6E-vQj97Ch-44" value="法定节假日" style="rounded=0;whiteSpace=wrap;html=1;fillColor=none;" vertex="1" parent="1">
          <mxGeometry x="805" y="480" width="120" height="40" as="geometry" />
        </mxCell>
        <mxCell id="8a4RQPelO_6E-vQj97Ch-45" value="促销" style="rounded=0;whiteSpace=wrap;html=1;fillColor=none;" vertex="1" parent="1">
          <mxGeometry x="805" y="525" width="120" height="41" as="geometry" />
        </mxCell>
        <mxCell id="8a4RQPelO_6E-vQj97Ch-46" value="……" style="rounded=0;whiteSpace=wrap;html=1;" vertex="1" parent="1">
          <mxGeometry x="485" y="535" width="120" height="30" as="geometry" />
        </mxCell>
        <mxCell id="8a4RQPelO_6E-vQj97Ch-47" value="" style="rounded=0;whiteSpace=wrap;html=1;" vertex="1" parent="1">
          <mxGeometry x="10" y="20" width="940" height="160" as="geometry" />
        </mxCell>
        <mxCell id="8a4RQPelO_6E-vQj97Ch-48" value="应用层面" style="text;html=1;align=center;verticalAlign=middle;resizable=0;points=[];autosize=1;strokeColor=none;fillColor=none;fontStyle=1" vertex="1" parent="1">
          <mxGeometry x="10" y="20" width="70" height="30" as="geometry" />
        </mxCell>
        <mxCell id="8a4RQPelO_6E-vQj97Ch-49" value="单店企划" style="whiteSpace=wrap;html=1;" vertex="1" parent="1">
          <mxGeometry x="60" y="60" width="120" height="60" as="geometry" />
        </mxCell>
      </root>
    </mxGraphModel>
  </diagram>
</mxfile>
